<svg width="9" height="9" viewBox="0 0 9 9" fill="none" xmlns="http://www.w3.org/2000/svg">
<path d="M3.36289 3.47464H5.40681M3.36423 5.29106H4.72815M8.01569 4.38285C8.01716 4.94695 7.88536 5.50342 7.63104 6.00694C7.32948 6.61031 6.8659 7.11781 6.29221 7.47259C5.71852 7.82737 5.05738 8.01543 4.38285 8.01569C3.91854 8.0169 3.4594 7.92782 3.0307 7.75445C2.85082 7.6817 2.65554 7.64852 2.46423 7.68093L1.53525 7.77987C1.21875 7.81358 0.951874 7.54664 0.985654 7.23015L1.08477 6.30147C1.11718 6.11016 1.084 5.91488 1.01125 5.735C0.837877 5.3063 0.748802 4.84716 0.750012 4.38285C0.750273 3.70832 0.938327 3.04718 1.29311 2.47349C1.64789 1.8998 2.15539 1.43622 2.75876 1.13467C3.26228 0.880338 3.81875 0.748541 4.38285 0.750012H4.59655C5.48738 0.799159 6.32879 1.17517 6.95966 1.80604C7.59053 2.43691 7.96654 3.27832 8.01569 4.16915V4.38285Z" stroke="#CDAA36" stroke-width="1.5" stroke-linecap="round" stroke-linejoin="round"/>
</svg>
