<svg width="17" height="17" viewBox="0 0 17 17" fill="none" xmlns="http://www.w3.org/2000/svg">
<circle cx="8.5" cy="8.5" r="8.5" fill="white"/>
<path d="M6.94252 8.94401L10.2323 10.861M10.2275 5.57234L6.94252 7.48937M12.92 4.84502C12.92 5.64308 12.2731 6.29002 11.475 6.29002C10.6769 6.29002 10.03 5.64308 10.03 4.84502C10.03 4.04697 10.6769 3.40002 11.475 3.40002C12.2731 3.40002 12.92 4.04697 12.92 4.84502ZM7.14 8.21669C7.14 9.01474 6.49305 9.66169 5.695 9.66169C4.89695 9.66169 4.25 9.01474 4.25 8.21669C4.25 7.41864 4.89695 6.77169 5.695 6.77169C6.49305 6.77169 7.14 7.41864 7.14 8.21669ZM12.92 11.5884C12.92 12.3864 12.2731 13.0334 11.475 13.0334C10.6769 13.0334 10.03 12.3864 10.03 11.5884C10.03 10.7903 10.6769 10.1434 11.475 10.1434C12.2731 10.1434 12.92 10.7903 12.92 11.5884Z" stroke="#A64735" stroke-linecap="round" stroke-linejoin="round"/>
</svg>
