<svg width="20" height="20" viewBox="0 0 20 20" fill="none" xmlns="http://www.w3.org/2000/svg">
<path d="M13.1999 9.99998C13.1999 9.6548 12.92 9.37498 12.5749 9.37498C12.2297 9.37498 11.9499 9.6548 11.9499 9.99998H12.5749H13.1999ZM9.9082 12.6666V13.2916V12.6666ZM7.86653 9.99998C7.86653 9.6548 7.58671 9.37498 7.24153 9.37498C6.89635 9.37498 6.61653 9.6548 6.61653 9.99998H7.24153H7.86653ZM16.5613 7.14853L17.1599 6.96894L16.5613 7.14853ZM3.33338 7.8669L3.95838 7.8669V7.8669H3.33338ZM3.43882 7.14853L2.84017 6.96894L3.43882 7.14853ZM3.33338 14.1666L3.95838 14.1666V14.1666H3.33338ZM15.9512 5.11494L15.3526 5.29453V5.29453L15.9512 5.11494ZM4.04889 5.11495L4.64753 5.29454L4.04889 5.11495ZM12.5749 9.99998H11.9499C11.9499 10.5415 11.7348 11.0608 11.3519 11.4437L11.7938 11.8856L12.2358 12.3275C12.8531 11.7102 13.1999 10.873 13.1999 9.99998H12.5749ZM11.7938 11.8856L11.3519 11.4437C10.969 11.8265 10.4497 12.0416 9.9082 12.0416V12.6666V13.2916C10.7812 13.2916 11.6185 12.9448 12.2358 12.3275L11.7938 11.8856ZM9.9082 12.6666V12.0416C9.36671 12.0416 8.84741 11.8265 8.46452 11.4437L8.02258 11.8856L7.58064 12.3275C8.19795 12.9448 9.03519 13.2916 9.9082 13.2916V12.6666ZM8.02258 11.8856L8.46452 11.4437C8.08163 11.0608 7.86653 10.5415 7.86653 9.99998H7.24153H6.61653C6.61653 10.873 6.96333 11.7102 7.58064 12.3275L8.02258 11.8856ZM3.33337 7.49998V8.12498H16.483V7.49998V6.87498H3.33337V7.49998ZM3.43882 7.14853L4.03746 7.32813L4.64753 5.29454L4.04889 5.11495L3.45025 4.93536L2.84017 6.96894L3.43882 7.14853ZM15.9512 5.11494L15.3526 5.29453L15.9626 7.32812L16.5613 7.14853L17.1599 6.96894L16.5498 4.93534L15.9512 5.11494ZM16.5613 7.14853L15.9626 7.32812C16.0151 7.50291 16.0417 7.68442 16.0417 7.8669H16.6667H17.2917C17.2917 7.56276 17.2473 7.26025 17.1599 6.96894L16.5613 7.14853ZM3.33338 7.8669H3.95838C3.95838 7.68442 3.98502 7.50291 4.03746 7.32813L3.43882 7.14853L2.84017 6.96894C2.75278 7.26025 2.70838 7.56276 2.70838 7.8669H3.33338ZM3.33338 14.1666L2.70838 14.1666C2.70838 15.8925 4.10748 17.2916 5.83338 17.2916V16.6666V16.0416C4.79784 16.0416 3.95838 15.2022 3.95838 14.1666L3.33338 14.1666ZM16.6667 14.1666H16.0417C16.0417 15.2022 15.2023 16.0416 14.1667 16.0416V16.6666V17.2916C15.8926 17.2916 17.2917 15.8925 17.2917 14.1666H16.6667ZM13.5566 3.33331V3.95831C14.3846 3.95831 15.1146 4.50144 15.3526 5.29453L15.9512 5.11494L16.5498 4.93534C16.1533 3.61352 14.9367 2.70831 13.5566 2.70831V3.33331ZM6.44345 3.33331V2.70831C5.06343 2.70831 3.84679 3.61353 3.45025 4.93536L4.04889 5.11495L4.64753 5.29454C4.88546 4.50144 5.61544 3.95831 6.44345 3.95831V3.33331ZM16.6667 7.8669H16.0417V14.1666H16.6667H17.2917V7.8669H16.6667ZM3.33338 14.1666H3.95838L3.95838 7.8669L3.33338 7.8669L2.70838 7.8669L2.70838 14.1666L3.33338 14.1666ZM6.44345 3.33331V3.95831H13.5566V3.33331V2.70831H6.44345V3.33331ZM14.1667 16.6666V16.0416H5.83338V16.6666V17.2916H14.1667V16.6666Z" fill="white"/>
</svg>
