<svg width="11" height="12" viewBox="0 0 11 12" fill="none" xmlns="http://www.w3.org/2000/svg">
<path d="M9.54443 0.703125H8.58799C8.1844 0.703125 7.83636 1.02384 7.75491 1.47082L6.84413 6.46858C6.73552 7.06456 6.27148 7.49218 5.73335 7.49218H2.31605C1.79222 7.49218 1.33654 7.0865 1.21361 6.51071L0.725045 4.22234C0.595849 3.6172 1.00135 3.0348 1.55188 3.0348H7.48241M5.83278 10.0298C5.83278 10.2874 6.01742 10.4962 6.24519 10.4962C6.47295 10.4962 6.65759 10.2874 6.65759 10.0298C6.65759 9.77229 6.47295 9.5635 6.24519 9.5635C6.01742 9.5635 5.83278 9.77229 5.83278 10.0298ZM1.29632 10.0298C1.29632 10.2874 1.48096 10.4962 1.70872 10.4962C1.93649 10.4962 2.12113 10.2874 2.12113 10.0298C2.12113 9.77229 1.93649 9.5635 1.70872 9.5635C1.48096 9.5635 1.29632 9.77229 1.29632 10.0298Z" stroke="white" stroke-width="1.40625" stroke-linecap="round" stroke-linejoin="round"/>
</svg>
