<svg width="9" height="9" viewBox="0 0 9 9" fill="none" xmlns="http://www.w3.org/2000/svg">
<path d="M4.23012 0.527648C4.32561 0.334208 4.60145 0.334209 4.69693 0.527648L5.6957 2.55105C5.77147 2.70454 5.91785 2.81098 6.08722 2.83573L8.32119 3.16226C8.53461 3.19346 8.61966 3.45579 8.46516 3.60628L6.84929 5.18013C6.7265 5.29973 6.67045 5.47211 6.69943 5.64105L7.08072 7.86419C7.11719 8.07684 6.89398 8.23899 6.70303 8.13857L4.70583 7.08827C4.55414 7.00849 4.37291 7.0085 4.22122 7.08827L2.22403 8.13857C2.03307 8.23899 1.80986 8.07684 1.84633 7.86419L2.22763 5.64105C2.2566 5.47211 2.20055 5.29973 2.07776 5.18013L0.461895 3.60628C0.307388 3.45579 0.392447 3.19346 0.605863 3.16226L2.83983 2.83573C3.00921 2.81098 3.15559 2.70454 3.23135 2.55105L4.23012 0.527648Z" stroke="#CDAA36" stroke-width="0.765111" stroke-linecap="round" stroke-linejoin="round"/>
</svg>
