<svg width="10" height="6" viewBox="0 0 10 6" fill="none" xmlns="http://www.w3.org/2000/svg">
<path d="M1.89437 0.0126672C1.85531 0.0263391 1.77913 0.0986047 1.75179 0.14548C1.73812 0.168917 1.72445 0.311495 1.71859 0.487277L1.70882 0.790011L1.32796 0.80173C1.11898 0.807589 0.945149 0.813448 0.941242 0.815402C0.937336 0.817355 0.923664 0.846652 0.909992 0.881808C0.872883 0.967745 0.896321 1.03806 0.978352 1.07907C1.0389 1.11032 1.12093 1.11228 2.02718 1.10837L3.01156 1.10251L3.05843 1.04782C3.11507 0.981417 3.11898 0.918917 3.06429 0.850558L3.02523 0.799777H2.52718H2.03109V0.555636V0.311495H4.61898H7.20687L7.20296 2.34665L7.1971 4.38376L6.05843 4.38962C5.15804 4.39353 4.91976 4.38962 4.91195 4.37009C4.8221 4.10837 4.74007 3.98337 4.57991 3.86228C4.32601 3.66892 3.96273 3.63962 3.66976 3.79001C3.49202 3.87985 3.32991 4.07712 3.25765 4.2861L3.22445 4.38376L2.62874 4.38962L2.03109 4.39353V3.94431V3.49509H2.29476C2.53304 3.49509 2.56234 3.49118 2.59749 3.45603C2.65609 3.39743 2.65609 3.29392 2.59554 3.23142C2.55843 3.19235 2.53109 3.19235 1.50179 3.19235H0.445149L0.398274 3.24704C0.341633 3.31345 0.337727 3.37595 0.392414 3.44431L0.431477 3.49509H1.07601H1.71859V4.04978C1.71859 4.5654 1.72054 4.60642 1.7557 4.64939L1.7928 4.69626L2.51156 4.70603L3.22835 4.71579L3.25179 4.79392C3.34163 5.0986 3.60921 5.33298 3.93538 5.39157C4.32796 5.46384 4.76741 5.19626 4.87874 4.81931L4.91195 4.70603H6.32991H7.74593L7.77132 4.80368C7.82601 5.01462 8.00765 5.22165 8.22835 5.32126C8.68929 5.53415 9.22445 5.30368 9.39242 4.82321L9.42952 4.71579L9.61312 4.70603C9.81624 4.69431 9.87679 4.66892 9.9432 4.56345C9.98031 4.50485 9.98226 4.47165 9.9764 3.92478C9.97054 3.35837 9.97054 3.34665 9.92171 3.23142C9.89437 3.16696 9.67562 2.76267 9.43734 2.33298C8.98031 1.51071 8.92171 1.42673 8.77718 1.38767C8.73031 1.374 8.47249 1.36618 8.11117 1.36618H7.52132L7.51546 0.774386C7.5096 0.192355 7.5096 0.184542 7.46468 0.120089C7.37093 -0.0107703 7.57992 -0.0010047 4.61507 0.000948429C3.1346 0.000948429 1.90999 0.0068078 1.89437 0.0126672ZM8.72249 1.71579C8.78695 1.79001 9.61117 3.29392 9.63851 3.38571C9.65999 3.45993 9.66781 3.5947 9.66781 3.93845V4.39548L9.54867 4.38962L9.43148 4.38376L9.39827 4.2861C9.24984 3.8486 8.80843 3.60642 8.36898 3.7197C8.08577 3.79392 7.84554 4.02634 7.76351 4.30564C7.74007 4.38376 7.74007 4.38376 7.62874 4.38962L7.51937 4.39548V3.0361V1.67868H8.10531C8.65413 1.67868 8.6932 1.68064 8.72249 1.71579ZM4.23616 4.03415C4.35726 4.06931 4.49398 4.1865 4.55452 4.30368C4.61116 4.41306 4.62288 4.59665 4.58187 4.7197C4.5389 4.8486 4.43343 4.96775 4.30843 5.0322C4.18734 5.0947 3.98226 5.10251 3.86116 5.04978C3.74788 5.00095 3.62288 4.874 3.57406 4.76071C3.52132 4.63571 3.52523 4.42673 3.58382 4.30564C3.66585 4.13962 3.87093 4.00681 4.05452 4.00485C4.09749 4.0029 4.17952 4.01657 4.23616 4.03415ZM8.77523 4.04196C9.14632 4.18064 9.24202 4.68064 8.94906 4.94431C8.83577 5.04587 8.74398 5.08298 8.59359 5.08298C8.29085 5.08493 8.07015 4.87985 8.05062 4.58103C8.04085 4.4072 8.08773 4.2822 8.21077 4.1611C8.36312 4.01071 8.57406 3.96579 8.77523 4.04196Z" fill="white"/>
<path d="M1.80664 1.44831C1.72266 1.49714 1.7207 1.51277 1.71875 2.00495V2.47956H1.48437C1.25977 2.47956 1.24609 2.48152 1.20117 2.52839C1.13672 2.59089 1.13672 2.68074 1.20117 2.74324L1.24805 2.79206H2.68164C4.10352 2.79206 4.11719 2.79206 4.16797 2.75105C4.24023 2.69441 4.24023 2.57722 4.16797 2.52058C4.11719 2.47956 4.09766 2.47956 3.07422 2.47956H2.03125V2.00886V1.53816L1.97461 1.48152C1.91406 1.42097 1.86914 1.41316 1.80664 1.44831Z" fill="white"/>
<path d="M0.0428918 1.69047C-0.0235144 1.73734 -0.017655 1.87602 0.0526575 1.93266C0.103439 1.97172 0.119064 1.97367 0.699142 1.96781L1.29289 1.96195L1.33 1.91508C1.38078 1.85258 1.37883 1.75492 1.32219 1.70219C1.27727 1.65922 1.26555 1.65922 0.681564 1.65922C0.175704 1.65922 0.0800012 1.66313 0.0428918 1.69047Z" fill="white"/>
</svg>
