<svg width="9" height="6" viewBox="0 0 9 6" fill="none" xmlns="http://www.w3.org/2000/svg">
<path d="M0.827265 0.0105405C0.61229 0.0376239 0.436248 0.127337 0.27544 0.288145C0.140023 0.423562 0.0469243 0.592834 0.0147628 0.763797C0.00122105 0.836584 -0.00216437 1.32578 0.00122105 2.44805L0.00629919 4.03073L0.048617 4.11537C0.145102 4.31172 0.309295 4.41498 0.546274 4.42852L0.696926 4.43698L0.702004 4.56394C0.718931 5.04297 1.09302 5.40014 1.57206 5.39675C2.03925 5.39337 2.41841 5.01589 2.41841 4.55209V4.42852L4.28548 4.4319L6.15085 4.43698L6.16269 4.58933C6.17454 4.76537 6.18808 4.81446 6.26087 4.95157C6.48431 5.37136 7.02598 5.5254 7.44408 5.28842C7.70137 5.14115 7.86895 4.85847 7.87064 4.56732L7.87233 4.43529L7.95189 4.40651C8.03991 4.37605 8.13978 4.28972 8.18548 4.20339C8.21426 4.1543 8.21595 4.07643 8.21595 3.26901V2.3888L8.16348 2.27877C8.08731 2.11797 7.47624 1.15143 7.38652 1.04817C7.29512 0.943225 7.11569 0.848433 6.96335 0.823042C6.90749 0.814579 6.64342 0.806115 6.37767 0.806115H5.89355L5.86478 0.699474C5.78014 0.394786 5.54993 0.157806 5.22832 0.0410089L5.11829 0.00207663L3.01933 0.000383854C1.8649 -0.00130892 0.878046 0.0037694 0.827265 0.0105405ZM5.17923 0.418484C5.31295 0.481114 5.40436 0.570828 5.46868 0.701167L5.52454 0.814579L5.52962 2.44297L5.53301 4.07305H3.91646H2.29992L2.17805 3.94779C1.99354 3.76159 1.81242 3.68373 1.56359 3.68373C1.29784 3.68373 1.03885 3.8056 0.89328 3.99857L0.837421 4.07305H0.688462C0.517498 4.07305 0.437941 4.04766 0.392238 3.97826C0.363461 3.93255 0.361769 3.853 0.361769 2.3888C0.361769 0.916141 0.363461 0.845047 0.39393 0.763797C0.463332 0.582677 0.617368 0.435411 0.788332 0.389708C0.852655 0.372781 1.29953 0.369395 2.97701 0.371088L5.08444 0.374474L5.17923 0.418484ZM6.96165 1.19713C6.9972 1.20729 7.05645 1.24284 7.09199 1.27669C7.15293 1.33424 7.77246 2.29909 7.8334 2.43112C7.8571 2.4819 7.86048 2.59023 7.86556 3.24701C7.86895 3.77175 7.86556 4.0138 7.85202 4.0392C7.81647 4.10521 7.75723 4.08151 7.64043 3.95795C7.46608 3.77175 7.26465 3.68373 7.01413 3.68373C6.76361 3.68373 6.56217 3.77175 6.38782 3.95795L6.2778 4.07305H6.0916H5.9054V2.62578V1.17851H6.40137C6.70098 1.17851 6.92103 1.18528 6.96165 1.19713ZM1.74302 4.07982C1.93261 4.15938 2.05279 4.3405 2.05279 4.54532C2.05279 4.73998 1.95461 4.89571 1.77857 4.98204C1.64992 5.04467 1.4688 5.04805 1.35201 4.98881C1.06763 4.84323 0.981301 4.49961 1.16581 4.24571C1.29276 4.06966 1.54497 3.99688 1.74302 4.07982ZM7.23757 4.10013C7.52702 4.24063 7.59642 4.62487 7.37975 4.8737C7.24264 5.02943 6.99043 5.07683 6.79915 4.98204C6.6248 4.8974 6.52663 4.73998 6.52493 4.54701C6.52324 4.36589 6.59941 4.22032 6.75007 4.12552C6.89902 4.02904 7.07337 4.02058 7.23757 4.10013Z" fill="white"/>
</svg>
