<svg width="12" height="11" viewBox="0 0 12 11" fill="none" xmlns="http://www.w3.org/2000/svg">
<path d="M10.484 1.38881C10.2197 1.10703 9.90581 0.883503 9.56037 0.730998C9.21494 0.578494 8.84469 0.5 8.47077 0.5C8.09686 0.5 7.7266 0.578494 7.38117 0.730998C7.03573 0.883503 6.72188 1.10703 6.45754 1.38881L6.11745 1.75117C6.0023 1.87386 5.8156 1.87386 5.70045 1.75117L5.36036 1.38881C4.82642 0.819902 4.10224 0.500295 3.34713 0.500295C2.59203 0.500295 1.86785 0.819902 1.33391 1.38881C0.799965 1.95771 0.5 2.72931 0.5 3.53386C0.5 4.33841 0.799965 5.11001 1.33391 5.67891L4.65795 9.22061C5.34886 9.95677 6.46905 9.95677 7.15996 9.22061L10.484 5.67891C10.7485 5.39727 10.9582 5.06287 11.1014 4.69481C11.2445 4.32676 11.3182 3.93226 11.3182 3.53386C11.3182 3.13546 11.2445 2.74096 11.1014 2.37291C10.9582 2.00485 10.7485 1.67045 10.484 1.38881Z" fill="#A64735" stroke="#A64735" stroke-linecap="round" stroke-linejoin="round"/>
</svg>
