<svg width="17" height="18" viewBox="0 0 17 18" fill="none" xmlns="http://www.w3.org/2000/svg">
<path d="M6.40002 8.25L6.84445 12.9167M10.4 8.25L9.95556 12.9167M0.75 4.67453H2.56127M2.56127 4.67453C7.27703 4.67453 16.0338 4.67453 16.0338 4.67453M2.56127 4.67453L3.20608 13.9579C3.3153 15.5303 4.62269 16.75 6.19887 16.75H10.6233C12.1903 16.75 13.4934 15.5439 13.6144 13.9816L14.3349 4.67453C14.3349 4.67453 6.68756 4.67453 2.56127 4.67453ZM5.2783 4.67453V2.75C5.2783 1.64543 6.17373 0.75 7.2783 0.75H9.61793C10.7225 0.75 11.6179 1.64543 11.6179 2.75V4.67453" stroke="#A6603A" stroke-width="1.5" stroke-linecap="round" stroke-linejoin="round"/>
</svg>
