<svg width="38" height="38" viewBox="0 0 38 38" fill="none" xmlns="http://www.w3.org/2000/svg">
<path d="M1.59381 18.5938C1.58693 21.2335 2.20367 23.8375 3.3938 26.1937C4.80493 29.0172 6.97429 31.3921 9.65888 33.0523C12.3435 34.7125 15.4373 35.5925 18.5938 35.5937C20.7665 35.5994 22.9151 35.1825 24.9211 34.3712C25.7629 34.0308 26.6767 33.8755 27.572 34.0272L31.9191 34.4902C33.4002 34.6479 34.6491 33.3988 34.491 31.9178L34.0272 27.572C33.8755 26.6767 34.0308 25.7629 34.3712 24.9212C35.1825 22.9151 35.5994 20.7665 35.5937 18.5938C35.5925 15.4373 34.7125 12.3435 33.0523 9.65888C31.3921 6.97429 29.0172 4.80493 26.1937 3.3938C23.8375 2.20367 21.2335 1.58692 18.5938 1.59381H17.5938C13.4251 1.82379 9.4877 3.58332 6.53551 6.53551C3.58332 9.48769 1.82379 13.4251 1.59381 17.5938V18.5938Z" fill="#909010"/>
<path d="M24.9688 19.0187H24.9517M18.5767 19.0187H18.5597M12.1847 19.0187H12.1677M1.59381 18.5938C1.58693 21.2335 2.20367 23.8375 3.3938 26.1937C4.80493 29.0172 6.97429 31.3921 9.65888 33.0523C12.3435 34.7125 15.4373 35.5925 18.5938 35.5937C20.7665 35.5994 22.9151 35.1825 24.9211 34.3712C25.7629 34.0308 26.6767 33.8755 27.572 34.0272L31.9191 34.4902C33.4002 34.6479 34.6491 33.3988 34.491 31.9178L34.0272 27.572C33.8755 26.6767 34.0308 25.7629 34.3712 24.9212C35.1825 22.9151 35.5994 20.7665 35.5937 18.5938C35.5925 15.4373 34.7125 12.3435 33.0523 9.65888C31.3921 6.97429 29.0172 4.80493 26.1937 3.3938C23.8375 2.20367 21.2335 1.58692 18.5938 1.59381H17.5938C13.4251 1.82379 9.4877 3.58332 6.53551 6.53551C3.58332 9.48769 1.82379 13.4251 1.59381 17.5938V18.5938Z" stroke="white" stroke-width="3.1875" stroke-linecap="round" stroke-linejoin="round"/>
</svg>
